{"accessors":[{"bufferView":0,"componentType":5125,"count":17688,"max":[11778.0],"min":[0.0],"type":"SCALAR"},{"bufferView":1,"componentType":5126,"count":11792,"max":[-33.73619842529297,12.580400466918946,52.28419876098633],"min":[-69.0427017211914,-12.580400466918946,28.78059959411621],"type":"VEC3"},{"bufferView":2,"componentType":5126,"count":11792,"max":[0.998199999332428,0.9998000264167786,0.9999603629112244],"min":[-0.998199999332428,-0.9998000264167786,-0.9999719262123108],"type":"VEC3"},{"bufferView":3,"componentType":5125,"count":62094,"max":[41395.0],"min":[0.0],"type":"SCALAR"},{"bufferView":4,"componentType":5126,"count":41396,"max":[-54.244300842285159,4.715199947357178,52.84400177001953],"min":[-69.152099609375,-4.715199947357178,33.09120178222656],"type":"VEC3"},{"bufferView":5,"componentType":5126,"count":41396,"max":[0.9990000128746033,0.9944999814033508,0.9441999793052673],"min":[-0.9993000030517578,-0.9944999814033508,-0.9980999827384949],"type":"VEC3"},{"bufferView":6,"componentType":5125,"count":90852,"max":[90850.0],"min":[0.0],"type":"SCALAR"},{"bufferView":7,"componentType":5126,"count":90852,"max":[45.434200286865237,14.906991958618164,57.85820007324219],"min":[-69.62760162353516,-30.7450008392334,10.322199821472168],"type":"VEC3"},{"bufferView":8,"componentType":5126,"count":90852,"max":[1.034500002861023,1.0,0.9999807476997376],"min":[-1.1914000511169434,-1.0,-0.9999809861183167],"type":"VEC3"},{"bufferView":9,"componentType":5125,"count":143592,"max":[95639.0],"min":[0.0],"type":"SCALAR"},{"bufferView":10,"componentType":5126,"count":95684,"max":[45.16419982910156,47.24420166015625,85.47440338134766],"min":[-48.766300201416019,-44.525901794433597,13.595000267028809],"type":"VEC3"},{"bufferView":11,"componentType":5126,"count":95684,"max":[1.0,1.0,1.0],"min":[-1.0,-1.0,-1.0],"type":"VEC3"},{"bufferView":12,"componentType":5125,"count":102966,"max":[68523.0],"min":[0.0],"type":"SCALAR"},{"bufferView":13,"componentType":5126,"count":68524,"max":[43.48249816894531,48.34920120239258,84.98690032958985],"min":[-56.8828010559082,-45.747398376464847,10.963299751281739],"type":"VEC3"},{"bufferView":14,"componentType":5126,"count":68524,"max":[0.9999868869781494,1.0,0.9999130368232727],"min":[-0.9999538660049439,-1.0,-0.9998999834060669],"type":"VEC3"},{"bufferView":15,"componentType":5125,"count":5160,"max":[3414.0],"min":[0.0],"type":"SCALAR"},{"bufferView":16,"componentType":5126,"count":3440,"max":[45.16419982910156,10.334799766540528,52.218299865722659],"min":[-57.137699127197269,-30.50279998779297,25.50589942932129],"type":"VEC3"},{"bufferView":17,"componentType":5126,"count":3440,"max":[0.9956392049789429,0.9883021116256714,0.9917560815811157],"min":[-0.9992555379867554,-0.9883021116256714,-0.9999986290931702],"type":"VEC3"},{"bufferView":18,"componentType":5126,"count":101,"max":[3.3333332538604738],"min":[0.0],"type":"SCALAR"},{"bufferView":19,"componentType":5126,"count":101,"max":[-19.16339111328125,-45.5750732421875,0.0],"min":[-19.16339111328125,-45.5750732421875,0.0],"type":"VEC3"},{"bufferView":20,"componentType":5126,"count":101,"max":[-3.0616171314629199e-17,0.0,0.0,-1.0],"min":[-3.0616171314629199e-17,0.0,0.0,-1.0],"type":"VEC4"},{"bufferView":21,"componentType":5126,"count":101,"max":[2.5399999618530275,2.5399999618530275,2.5399999618530275],"min":[2.5399999618530275,2.5399999618530275,2.5399999618530275],"type":"VEC3"},{"bufferView":22,"componentType":5126,"count":101,"max":[-19.16339111328125,-45.5750732421875,0.0],"min":[-19.16339111328125,-45.5750732421875,0.0],"type":"VEC3"},{"bufferView":23,"componentType":5126,"count":101,"max":[-3.0616171314629199e-17,0.0,0.0,-1.0],"min":[-3.0616171314629199e-17,0.0,0.0,-1.0],"type":"VEC4"},{"bufferView":24,"componentType":5126,"count":101,"max":[2.5399999618530275,2.5399999618530275,2.5399999618530275],"min":[2.5399999618530275,2.5399999618530275,2.5399999618530275],"type":"VEC3"},{"bufferView":25,"componentType":5126,"count":101,"max":[-19.16339111328125,-45.5750732421875,0.0],"min":[-19.16339111328125,-45.5750732421875,0.0],"type":"VEC3"},{"bufferView":26,"componentType":5126,"count":101,"max":[-3.0616171314629199e-17,0.0,0.0,-1.0],"min":[-3.0616171314629199e-17,0.0,0.0,-1.0],"type":"VEC4"},{"bufferView":27,"componentType":5126,"count":101,"max":[2.5399999618530275,2.5399999618530275,2.5399999618530275],"min":[2.5399999618530275,2.5399999618530275,2.5399999618530275],"type":"VEC3"},{"bufferView":28,"componentType":5126,"count":101,"max":[-19.16339111328125,-45.5750732421875,0.0],"min":[-19.16339111328125,-45.5750732421875,0.0],"type":"VEC3"},{"bufferView":29,"componentType":5126,"count":101,"max":[-3.0616171314629199e-17,0.0,0.0,-1.0],"min":[-3.0616171314629199e-17,0.0,0.0,-1.0],"type":"VEC4"},{"bufferView":30,"componentType":5126,"count":101,"max":[2.5399999618530275,2.5399999618530275,2.5399999618530275],"min":[2.5399999618530275,2.5399999618530275,2.5399999618530275],"type":"VEC3"},{"bufferView":31,"componentType":5126,"count":101,"max":[-19.16339111328125,-45.5750732421875,0.0],"min":[-19.16339111328125,-45.5750732421875,0.0],"type":"VEC3"},{"bufferView":32,"componentType":5126,"count":101,"max":[-3.0616171314629199e-17,0.0,0.0,-1.0],"min":[-3.0616171314629199e-17,0.0,0.0,-1.0],"type":"VEC4"},{"bufferView":33,"componentType":5126,"count":101,"max":[2.5399999618530275,2.5399999618530275,2.5399999618530275],"min":[2.5399999618530275,2.5399999618530275,2.5399999618530275],"type":"VEC3"},{"bufferView":34,"componentType":5126,"count":101,"max":[-19.16339111328125,-45.5750732421875,0.0],"min":[-19.16339111328125,-45.5750732421875,0.0],"type":"VEC3"},{"bufferView":35,"componentType":5126,"count":101,"max":[-3.0616171314629199e-17,0.0,0.0,-1.0],"min":[-3.0616171314629199e-17,0.0,0.0,-1.0],"type":"VEC4"},{"bufferView":36,"componentType":5126,"count":101,"max":[2.5399999618530275,2.5399999618530275,2.5399999618530275],"min":[2.5399999618530275,2.5399999618530275,2.5399999618530275],"type":"VEC3"}],"animations":[{"name":"Take 001","channels":[{"sampler":0,"target":{"node":3,"path":"scale"}},{"sampler":1,"target":{"node":3,"path":"translation"}},{"sampler":2,"target":{"node":3,"path":"rotation"}},{"sampler":3,"target":{"node":7,"path":"scale"}},{"sampler":4,"target":{"node":7,"path":"translation"}},{"sampler":5,"target":{"node":7,"path":"rotation"}},{"sampler":6,"target":{"node":11,"path":"scale"}},{"sampler":7,"target":{"node":11,"path":"translation"}},{"sampler":8,"target":{"node":11,"path":"rotation"}},{"sampler":9,"target":{"node":15,"path":"scale"}},{"sampler":10,"target":{"node":15,"path":"translation"}},{"sampler":11,"target":{"node":15,"path":"rotation"}},{"sampler":12,"target":{"node":19,"path":"scale"}},{"sampler":13,"target":{"node":19,"path":"translation"}},{"sampler":14,"target":{"node":19,"path":"rotation"}},{"sampler":15,"target":{"node":23,"path":"scale"}},{"sampler":16,"target":{"node":23,"path":"translation"}},{"sampler":17,"target":{"node":23,"path":"rotation"}}],"samplers":[{"input":18,"interpolation":"LINEAR","output":21},{"input":18,"interpolation":"LINEAR","output":19},{"input":18,"interpolation":"LINEAR","output":20},{"input":18,"interpolation":"LINEAR","output":24},{"input":18,"interpolation":"LINEAR","output":22},{"input":18,"interpolation":"LINEAR","output":23},{"input":18,"interpolation":"LINEAR","output":27},{"input":18,"interpolation":"LINEAR","output":25},{"input":18,"interpolation":"LINEAR","output":26},{"input":18,"interpolation":"LINEAR","output":30},{"input":18,"interpolation":"LINEAR","output":28},{"input":18,"interpolation":"LINEAR","output":29},{"input":18,"interpolation":"LINEAR","output":33},{"input":18,"interpolation":"LINEAR","output":31},{"input":18,"interpolation":"LINEAR","output":32},{"input":18,"interpolation":"LINEAR","output":36},{"input":18,"interpolation":"LINEAR","output":34},{"input":18,"interpolation":"LINEAR","output":35}]}],"asset":{"generator":"SimLab GLTF","version":"2.0"},"bufferViews":[{"buffer":0,"byteLength":70752,"target":34963},{"buffer":0,"byteLength":141504,"byteOffset":70752,"byteStride":12,"target":34962},{"buffer":0,"byteLength":141504,"byteOffset":212256,"byteStride":12,"target":34962},{"buffer":0,"byteLength":248376,"byteOffset":353760,"target":34963},{"buffer":0,"byteLength":496752,"byteOffset":602136,"byteStride":12,"target":34962},{"buffer":0,"byteLength":496752,"byteOffset":1098888,"byteStride":12,"target":34962},{"buffer":0,"byteLength":363408,"byteOffset":1595640,"target":34963},{"buffer":0,"byteLength":1090224,"byteOffset":1959048,"byteStride":12,"target":34962},{"buffer":0,"byteLength":1090224,"byteOffset":3049272,"byteStride":12,"target":34962},{"buffer":0,"byteLength":574368,"byteOffset":4139496,"target":34963},{"buffer":0,"byteLength":1148208,"byteOffset":4713864,"byteStride":12,"target":34962},{"buffer":0,"byteLength":1148208,"byteOffset":5862072,"byteStride":12,"target":34962},{"buffer":0,"byteLength":411864,"byteOffset":7010280,"target":34963},{"buffer":0,"byteLength":822288,"byteOffset":7422144,"byteStride":12,"target":34962},{"buffer":0,"byteLength":822288,"byteOffset":8244432,"byteStride":12,"target":34962},{"buffer":0,"byteLength":20640,"byteOffset":9066720,"target":34963},{"buffer":0,"byteLength":41280,"byteOffset":9087360,"byteStride":12,"target":34962},{"buffer":0,"byteLength":41280,"byteOffset":9128640,"byteStride":12,"target":34962},{"buffer":0,"byteLength":404,"byteOffset":9169920,"byteStride":4},{"buffer":0,"byteLength":1212,"byteOffset":9170324,"byteStride":12},{"buffer":0,"byteLength":1616,"byteOffset":9171536,"byteStride":16},{"buffer":0,"byteLength":1212,"byteOffset":9173152,"byteStride":12},{"buffer":0,"byteLength":1212,"byteOffset":9174364,"byteStride":12},{"buffer":0,"byteLength":1616,"byteOffset":9175576,"byteStride":16},{"buffer":0,"byteLength":1212,"byteOffset":9177192,"byteStride":12},{"buffer":0,"byteLength":1212,"byteOffset":9178404,"byteStride":12},{"buffer":0,"byteLength":1616,"byteOffset":9179616,"byteStride":16},{"buffer":0,"byteLength":1212,"byteOffset":9181232,"byteStride":12},{"buffer":0,"byteLength":1212,"byteOffset":9182444,"byteStride":12},{"buffer":0,"byteLength":1616,"byteOffset":9183656,"byteStride":16},{"buffer":0,"byteLength":1212,"byteOffset":9185272,"byteStride":12},{"buffer":0,"byteLength":1212,"byteOffset":9186484,"byteStride":12},{"buffer":0,"byteLength":1616,"byteOffset":9187696,"byteStride":16},{"buffer":0,"byteLength":1212,"byteOffset":9189312,"byteStride":12},{"buffer":0,"byteLength":1212,"byteOffset":9190524,"byteStride":12},{"buffer":0,"byteLength":1616,"byteOffset":9191736,"byteStride":16},{"buffer":0,"byteLength":1212,"byteOffset":9193352,"byteStride":12}],"buffers":[{"byteLength":9194564,"uri":"dragon.bin"}],"materials":[{"name":"Negro boca_2","alphaMode":"MASK","doubleSided":true,"pbrMetallicRoughness":{"baseColorFactor":[0.0,0.0,0.0,1.0],"roughnessFactor":0.9854999780654907}},{"name":"Dientes","alphaMode":"MASK","doubleSided":true,"pbrMetallicRoughness":{"baseColorFactor":[0.5879999995231628,0.5879999995231628,0.5879999995231628,1.0],"roughnessFactor":0.9854999780654907}},{"name":"Cobre","alphaMode":"MASK","doubleSided":true,"pbrMetallicRoughness":{"baseColorFactor":[0.7686274647712708,0.0,0.0,1.0],"roughnessFactor":0.9854999780654907}},{"name":"Metal oscuro","alphaMode":"MASK","doubleSided":true,"pbrMetallicRoughness":{"baseColorFactor":[0.08627451211214066,0.08627451211214066,0.08627451211214066,1.0],"roughnessFactor":0.9854999780654907}},{"name":"Oro","alphaMode":"MASK","doubleSided":true,"pbrMetallicRoughness":{"baseColorFactor":[1.0,0.8705882430076599,0.0,1.0],"roughnessFactor":0.9854999780654907}},{"name":"Emisivo","alphaMode":"MASK","doubleSided":true,"pbrMetallicRoughness":{"baseColorFactor":[0.4784314036369324,0.125490203499794,0.6117647290229797,1.0],"roughnessFactor":0.9854999780654907}}],"meshes":[{"primitives":[{"attributes":{"NORMAL":2,"POSITION":1},"indices":0,"material":0,"mode":4}]},{"primitives":[{"attributes":{"NORMAL":5,"POSITION":4},"indices":3,"material":1,"mode":4}]},{"primitives":[{"attributes":{"NORMAL":8,"POSITION":7},"indices":6,"material":2,"mode":4}]},{"primitives":[{"attributes":{"NORMAL":11,"POSITION":10},"indices":9,"material":3,"mode":4}]},{"primitives":[{"attributes":{"NORMAL":14,"POSITION":13},"indices":12,"material":4,"mode":4}]},{"primitives":[{"attributes":{"NORMAL":17,"POSITION":16},"indices":15,"material":5,"mode":4}]}],"nodes":[{"children":[1,2],"matrix":[1.0,0.0,0.0,0.0,0.0,4.4896593387466768e-11,-1.0,0.0,0.0,1.0,4.4896593387466768e-11,0.0,0.0,0.0,0.0,1.0]},{"name":"Camera-1","rotation":[-0.7071067690849304,0.0,0.0,-0.7071067690849304],"translation":[-1.2671809196472169,-30.766986846923829,3.0902068614959719]},{"name":"Assembly-13","children":[3,7,11,15,19,23],"rotation":[0.0,0.0,0.0,-1.0],"scale":[0.02539999969303608,0.02539999969303608,0.02539999969303608]},{"name":"Negro boca_2","children":[4],"rotation":[-3.0616171314629199e-17,0.0,0.0,-1.0],"scale":[2.5399999618530275,2.5399999618530275,2.5399999618530275],"translation":[-19.16339111328125,-45.5750732421875,0.0]},{"name":"Assembly-2","children":[6],"rotation":[0.0,0.0,0.0,-1.0]},{"mesh":0},{"children":[5]},{"name":"Dientes","children":[8],"rotation":[-3.0616171314629199e-17,0.0,0.0,-1.0],"scale":[2.5399999618530275,2.5399999618530275,2.5399999618530275],"translation":[-19.16339111328125,-45.5750732421875,0.0]},{"name":"Assembly-4","children":[10],"rotation":[0.0,0.0,0.0,-1.0]},{"mesh":1},{"children":[9]},{"name":"Cobre","children":[12],"rotation":[-3.0616171314629199e-17,0.0,0.0,-1.0],"scale":[2.5399999618530275,2.5399999618530275,2.5399999618530275],"translation":[-19.16339111328125,-45.5750732421875,0.0]},{"name":"Assembly-6","children":[14],"rotation":[0.0,0.0,0.0,-1.0]},{"mesh":2},{"children":[13]},{"name":"Metal oscuro_2","children":[16],"rotation":[-3.0616171314629199e-17,0.0,0.0,-1.0],"scale":[2.5399999618530275,2.5399999618530275,2.5399999618530275],"translation":[-19.16339111328125,-45.5750732421875,0.0]},{"name":"Assembly-8","children":[18],"rotation":[0.0,0.0,0.0,-1.0]},{"mesh":3},{"children":[17]},{"name":"Oro","children":[20],"rotation":[-3.0616171314629199e-17,0.0,0.0,-1.0],"scale":[2.5399999618530275,2.5399999618530275,2.5399999618530275],"translation":[-19.16339111328125,-45.5750732421875,0.0]},{"name":"Assembly-10","children":[22],"rotation":[0.0,0.0,0.0,-1.0]},{"mesh":4},{"children":[21]},{"name":"Emisivo","children":[24],"rotation":[-3.0616171314629199e-17,0.0,0.0,-1.0],"scale":[2.5399999618530275,2.5399999618530275,2.5399999618530275],"translation":[-19.16339111328125,-45.5750732421875,0.0]},{"name":"Assembly-12","children":[26],"rotation":[0.0,0.0,0.0,-1.0]},{"mesh":5},{"children":[25]}],"scene":0,"scenes":[{"nodes":[0]}]}